HIERARCHY
ROOT Hips
{
	OFFSET -339.306915 540.749023 89.171944
	CHANNELS 6 Xposition Yposition Zposition Zrotation Yrotation Xrotation
	JOINT Spine
	{
		OFFSET 0.000000 2.080078 8.814247
		CHANNELS 6 Xposition Yposition Zposition Zrotation Yrotation Xrotation
		JOINT Spine1
		{
			OFFSET 0.000000 0.000000 8.844139
			CHANNELS 6 Xposition Yposition Zposition Zrotation Yrotation Xrotation
			JOINT Spine2
			{
				OFFSET 0.000000 0.000000 11.682266
				CHANNELS 6 Xposition Yposition Zposition Zrotation Yrotation Xrotation
				JOINT Spine3
				{
					OFFSET 0.000000 0.000000 11.746696
					CHANNELS 6 Xposition Yposition Zposition Zrotation Yrotation Xrotation
					JOINT Neck
					{
						OFFSET 0.000000 0.000000 17.658264
						CHANNELS 6 Xposition Yposition Zposition Zrotation Yrotation Xrotation
						JOINT Neck1
						{
							OFFSET 0.000000 0.000000 5.101517
							CHANNELS 6 Xposition Yposition Zposition Zrotation Yrotation Xrotation
							JOINT Head
							{
								OFFSET 0.000000 0.000000 5.101517
								CHANNELS 6 Xposition Yposition Zposition Zrotation Yrotation Xrotation
								JOINT HeadEnd
								{
									OFFSET 0.000000 0.000000 11.655090
									CHANNELS 6 Xposition Yposition Zposition Zrotation Yrotation Xrotation
									End Site
									{
										OFFSET 0.000000 0.000000 0.100006
									}
								}
							}
						}
					}
					JOINT RightShoulder
					{
						OFFSET -2.625397 0.000000 11.175217
						CHANNELS 6 Xposition Yposition Zposition Zrotation Yrotation Xrotation
						JOINT RightArm
						{
							OFFSET 0.000000 0.000000 10.434708
							CHANNELS 6 Xposition Yposition Zposition Zrotation Yrotation Xrotation
							JOINT RightForeArm
							{
								OFFSET 0.000000 0.000000 29.628418
								CHANNELS 6 Xposition Yposition Zposition Zrotation Yrotation Xrotation
								JOINT RightHand
								{
									OFFSET 0.000000 0.000000 22.857605
									CHANNELS 6 Xposition Yposition Zposition Zrotation Yrotation Xrotation
									JOINT RightHandThumb1
									{
										OFFSET -2.867310 -2.944275 3.959564
										CHANNELS 6 Xposition Yposition Zposition Zrotation Yrotation Xrotation
										JOINT RightHandThumb2
										{
											OFFSET 0.000000 0.000000 3.350403
											CHANNELS 6 Xposition Yposition Zposition Zrotation Yrotation Xrotation
											JOINT RightHandThumb3
											{
												OFFSET 0.000000 0.000000 3.756516
												CHANNELS 6 Xposition Yposition Zposition Zrotation Yrotation Xrotation
												JOINT RightHandThumb4
												{
													OFFSET 0.000000 0.000000 3.147339
													CHANNELS 6 Xposition Yposition Zposition Zrotation Yrotation Xrotation
													End Site
													{
														OFFSET 0.000000 0.000000 0.100006
													}
												}
											}
										}
									}
									JOINT RightHandIndex1
									{
										OFFSET -0.086761 -2.345276 10.030899
										CHANNELS 6 Xposition Yposition Zposition Zrotation Yrotation Xrotation
										JOINT RightHandIndex2
										{
											OFFSET 0.000000 0.000000 4.061096
											CHANNELS 6 Xposition Yposition Zposition Zrotation Yrotation Xrotation
											JOINT RightHandIndex3
											{
												OFFSET 0.000000 0.000000 3.248871
												CHANNELS 6 Xposition Yposition Zposition Zrotation Yrotation Xrotation
												JOINT RightHandIndex4
												{
													OFFSET 0.000000 0.000000 2.639709
													CHANNELS 6 Xposition Yposition Zposition Zrotation Yrotation Xrotation
													End Site
													{
														OFFSET 0.000000 0.000000 0.100006
													}
												}
											}
										}
									}
									JOINT RightHandMiddle1
									{
										OFFSET 0.104095 -0.006775 9.502945
										CHANNELS 6 Xposition Yposition Zposition Zrotation Yrotation Xrotation
										JOINT RightHandMiddle2
										{
											OFFSET 0.000000 0.000000 4.568726
											CHANNELS 6 Xposition Yposition Zposition Zrotation Yrotation Xrotation
											JOINT RightHandMiddle3
											{
												OFFSET 0.000000 0.000000 3.654984
												CHANNELS 6 Xposition Yposition Zposition Zrotation Yrotation Xrotation
												JOINT RightHandMiddle4
												{
													OFFSET 0.000000 0.000000 2.741241
													CHANNELS 6 Xposition Yposition Zposition Zrotation Yrotation Xrotation
													End Site
													{
														OFFSET 0.000000 0.000000 0.100006
													}
												}
											}
										}
									}
									JOINT RightHandRing1
									{
										OFFSET 0.086761 2.267456 8.921707
										CHANNELS 6 Xposition Yposition Zposition Zrotation Yrotation Xrotation
										JOINT RightHandRing2
										{
											OFFSET 0.000000 0.000000 4.061096
											CHANNELS 6 Xposition Yposition Zposition Zrotation Yrotation Xrotation
											JOINT RightHandRing3
											{
												OFFSET 0.000000 0.000000 3.654984
												CHANNELS 6 Xposition Yposition Zposition Zrotation Yrotation Xrotation
												JOINT RightHandRing4
												{
													OFFSET 0.000000 0.000000 2.741241
													CHANNELS 6 Xposition Yposition Zposition Zrotation Yrotation Xrotation
													End Site
													{
														OFFSET 0.000000 0.000000 0.100006
													}
												}
											}
										}
									}
									JOINT RightHandPinky1
									{
										OFFSET -0.173492 4.467224 7.976990
										CHANNELS 6 Xposition Yposition Zposition Zrotation Yrotation Xrotation
										JOINT RightHandPinky2
										{
											OFFSET 0.000000 0.000000 3.350403
											CHANNELS 6 Xposition Yposition Zposition Zrotation Yrotation Xrotation
											JOINT RightHandPinky3
											{
												OFFSET 0.000000 0.000000 2.842758
												CHANNELS 6 Xposition Yposition Zposition Zrotation Yrotation Xrotation
												JOINT RightHandPinky4
												{
													OFFSET 0.000000 0.000000 2.639709
													CHANNELS 6 Xposition Yposition Zposition Zrotation Yrotation Xrotation
													End Site
													{
														OFFSET 0.000000 0.000000 0.100006
													}
												}
											}
										}
									}
									JOINT RightForeArmEnd
									{
										OFFSET 0.000000 0.000000 0.000000
										CHANNELS 6 Xposition Yposition Zposition Zrotation Yrotation Xrotation
										End Site
										{
											OFFSET 0.000000 0.000000 0.100006
										}
									}
								}
								JOINT RightArmEnd
								{
									OFFSET 0.000000 0.000000 0.000000
									CHANNELS 6 Xposition Yposition Zposition Zrotation Yrotation Xrotation
									End Site
									{
										OFFSET 0.000000 0.000000 0.100006
									}
								}
							}
						}
					}
					JOINT LeftShoulder
					{
						OFFSET 2.625397 0.000000 11.175217
						CHANNELS 6 Xposition Yposition Zposition Zrotation Yrotation Xrotation
						JOINT LeftArm
						{
							OFFSET 0.000000 0.000000 10.813629
							CHANNELS 6 Xposition Yposition Zposition Zrotation Yrotation Xrotation
							JOINT LeftForeArm
							{
								OFFSET 0.000000 0.000000 28.724777
								CHANNELS 6 Xposition Yposition Zposition Zrotation Yrotation Xrotation
								JOINT LeftHand
								{
									OFFSET 0.644379 0.328857 25.716171
									CHANNELS 6 Xposition Yposition Zposition Zrotation Yrotation Xrotation
									JOINT LeftHandThumb1
									{
										OFFSET 2.867310 -2.944275 3.959564
										CHANNELS 6 Xposition Yposition Zposition Zrotation Yrotation Xrotation
										JOINT LeftHandThumb2
										{
											OFFSET 0.000000 0.000000 3.350403
											CHANNELS 6 Xposition Yposition Zposition Zrotation Yrotation Xrotation
											JOINT LeftHandThumb3
											{
												OFFSET 0.000000 0.000000 3.756516
												CHANNELS 6 Xposition Yposition Zposition Zrotation Yrotation Xrotation
												JOINT LeftHandThumb4
												{
													OFFSET 0.000000 0.000000 3.100006
													CHANNELS 6 Xposition Yposition Zposition Zrotation Yrotation Xrotation
													End Site
													{
														OFFSET 0.000000 0.000000 0.100006
													}
												}
											}
										}
									}
									JOINT LeftHandIndex1
									{
										OFFSET 0.086761 -2.345276 10.030899
										CHANNELS 6 Xposition Yposition Zposition Zrotation Yrotation Xrotation
										JOINT LeftHandIndex2
										{
											OFFSET 0.000000 0.000000 4.061096
											CHANNELS 6 Xposition Yposition Zposition Zrotation Yrotation Xrotation
											JOINT LeftHandIndex3
											{
												OFFSET 0.000000 0.000000 3.248871
												CHANNELS 6 Xposition Yposition Zposition Zrotation Yrotation Xrotation
												JOINT LeftHandIndex4
												{
													OFFSET 0.000000 0.000000 2.639709
													CHANNELS 6 Xposition Yposition Zposition Zrotation Yrotation Xrotation
													End Site
													{
														OFFSET 0.000000 0.000000 0.100006
													}
												}
											}
										}
									}
									JOINT LeftHandMiddle1
									{
										OFFSET -0.104095 -0.006775 9.502945
										CHANNELS 6 Xposition Yposition Zposition Zrotation Yrotation Xrotation
										JOINT LeftHandMiddle2
										{
											OFFSET 0.000000 0.000000 4.568726
											CHANNELS 6 Xposition Yposition Zposition Zrotation Yrotation Xrotation
											JOINT LeftHandMiddle3
											{
												OFFSET 0.000000 0.000000 3.654984
												CHANNELS 6 Xposition Yposition Zposition Zrotation Yrotation Xrotation
												JOINT LeftHandMiddle4
												{
													OFFSET 0.000000 0.000000 2.741241
													CHANNELS 6 Xposition Yposition Zposition Zrotation Yrotation Xrotation
													End Site
													{
														OFFSET 0.000000 0.000000 0.100006
													}
												}
											}
										}
									}
									JOINT LeftHandRing1
									{
										OFFSET -0.086761 2.267456 8.921707
										CHANNELS 6 Xposition Yposition Zposition Zrotation Yrotation Xrotation
										JOINT LeftHandRing2
										{
											OFFSET 0.000000 0.000000 4.061096
											CHANNELS 6 Xposition Yposition Zposition Zrotation Yrotation Xrotation
											JOINT LeftHandRing3
											{
												OFFSET 0.000000 0.000000 3.654984
												CHANNELS 6 Xposition Yposition Zposition Zrotation Yrotation Xrotation
												JOINT LeftHandRing4
												{
													OFFSET 0.000000 0.000000 2.741241
													CHANNELS 6 Xposition Yposition Zposition Zrotation Yrotation Xrotation
													End Site
													{
														OFFSET 0.000000 0.000000 0.100006
													}
												}
											}
										}
									}
									JOINT LeftHandPinky1
									{
										OFFSET 0.173492 4.467224 7.976990
										CHANNELS 6 Xposition Yposition Zposition Zrotation Yrotation Xrotation
										JOINT LeftHandPinky2
										{
											OFFSET 0.000000 0.000000 3.350403
											CHANNELS 6 Xposition Yposition Zposition Zrotation Yrotation Xrotation
											JOINT LeftHandPinky3
											{
												OFFSET 0.000000 0.000000 2.842758
												CHANNELS 6 Xposition Yposition Zposition Zrotation Yrotation Xrotation
												JOINT LeftHandPinky4
												{
													OFFSET 0.000000 0.000000 2.639709
													CHANNELS 6 Xposition Yposition Zposition Zrotation Yrotation Xrotation
													End Site
													{
														OFFSET 0.000000 0.000000 0.100006
													}
												}
											}
										}
									}
									JOINT LeftForeArmEnd
									{
										OFFSET 0.000000 0.000000 0.000000
										CHANNELS 6 Xposition Yposition Zposition Zrotation Yrotation Xrotation
										End Site
										{
											OFFSET 0.000000 0.000000 0.100006
										}
									}
								}
								JOINT LeftArmEnd
								{
									OFFSET 0.000000 0.000000 0.000000
									CHANNELS 6 Xposition Yposition Zposition Zrotation Yrotation Xrotation
									End Site
									{
										OFFSET 0.000000 0.000000 0.100006
									}
								}
							}
						}
					}
				}
			}
		}
	}
	JOINT RightUpLeg
	{
		OFFSET -11.289948 0.000000 0.000000
		CHANNELS 6 Xposition Yposition Zposition Zrotation Yrotation Xrotation
		JOINT RightLeg
		{
			OFFSET 0.000000 0.000000 -38.200329
			CHANNELS 6 Xposition Yposition Zposition Zrotation Yrotation Xrotation
			JOINT RightFoot
			{
				OFFSET 0.000000 0.000000 -39.900856
				CHANNELS 6 Xposition Yposition Zposition Zrotation Yrotation Xrotation
				JOINT RightToeBase
				{
					OFFSET 0.000000 -15.261658 0.000001
					CHANNELS 6 Xposition Yposition Zposition Zrotation Yrotation Xrotation
					JOINT RightToeBaseEnd
					{
						OFFSET 0.000000 -7.370728 0.000001
						CHANNELS 6 Xposition Yposition Zposition Zrotation Yrotation Xrotation
						End Site
						{
							OFFSET 0.000000 0.000000 0.100000
						}
					}
				}
				JOINT RightLegEnd
				{
					OFFSET 0.000000 0.000000 0.000000
					CHANNELS 6 Xposition Yposition Zposition Zrotation Yrotation Xrotation
					End Site
					{
						OFFSET 0.000000 0.000000 0.100000
					}
				}
			}
			JOINT RightUpLegEnd
			{
				OFFSET 0.000000 0.000000 0.000000
				CHANNELS 6 Xposition Yposition Zposition Zrotation Yrotation Xrotation
				End Site
				{
					OFFSET 0.000000 0.000000 0.099998
				}
			}
		}
	}
	JOINT LeftUpLeg
	{
		OFFSET 11.315674 0.000000 0.000000
		CHANNELS 6 Xposition Yposition Zposition Zrotation Yrotation Xrotation
		JOINT LeftLeg
		{
			OFFSET 0.000000 0.000000 -38.200329
			CHANNELS 6 Xposition Yposition Zposition Zrotation Yrotation Xrotation
			JOINT LeftFoot
			{
				OFFSET 0.000000 0.000000 -39.900856
				CHANNELS 6 Xposition Yposition Zposition Zrotation Yrotation Xrotation
				JOINT LeftToeBase
				{
					OFFSET 0.000000 -15.261658 0.000001
					CHANNELS 6 Xposition Yposition Zposition Zrotation Yrotation Xrotation
					JOINT LeftToeBaseEnd
					{
						OFFSET 0.000000 -7.539978 0.000001
						CHANNELS 6 Xposition Yposition Zposition Zrotation Yrotation Xrotation
						End Site
						{
							OFFSET 0.000000 0.000000 0.100000
						}
					}
				}
				JOINT LeftLegEnd
				{
					OFFSET 0.000000 0.000000 0.000000
					CHANNELS 6 Xposition Yposition Zposition Zrotation Yrotation Xrotation
					End Site
					{
						OFFSET 0.000000 0.000000 0.100000
					}
				}
			}
			JOINT LeftUpLegEnd
			{
				OFFSET 0.000000 0.000000 0.000000
				CHANNELS 6 Xposition Yposition Zposition Zrotation Yrotation Xrotation
				End Site
				{
					OFFSET 0.000000 0.000000 0.099998
				}
			}
		}
	}
}
MOTION
Frames: 2
Frame Time: 0.016667
44.206543 -63.758789 84.362022 -31.995837 0.579221 -13.205985 -0.000006 2.080083 8.814247 1.267619 3.721335 14.528816 0.000004 0.000010 8.844141 0.605402 0.862714 8.271332 0.000011 0.000015 11.682272 5.263383 1.325650 11.230788 -0.000002 -0.000011 11.746699 1.563035 1.810418 7.505555 -0.000004 0.000009 17.658276 2.394130 9.306132 2.098205 -0.000006 0.000008 5.101536 -2.507974 1.528389 -4.271006 0.000038 -0.000010 5.101541 1.100283 -0.119909 -14.385225 -0.000002 0.000005 11.655086 -0.000001 0.000001 -0.000001 -2.625423 -0.000014 11.175219 15.344361 -83.485423 1.424489 -0.000015 -0.000069 10.434715 -55.457663 -41.040858 80.456063 -0.000006 0.000000 29.628468 12.435551 -0.170947 35.810593 -0.000043 -0.000043 22.857597 -8.358329 3.535457 -1.610403 -2.867293 -2.944260 3.959579 32.858111 -27.566935 37.131398 -0.000008 -0.000015 3.350410 -35.329553 9.952396 -59.417270 0.000008 0.000031 3.756531 -23.610287 10.970593 -40.645732 -0.000010 0.000000 3.147327 -0.000001 0.000002 0.000001 -0.086757 -2.345289 10.030906 68.608963 -91.767553 -79.438454 0.000000 0.000061 4.061096 9.616178 -63.411387 -16.307534 -0.000015 -0.000084 3.248886 10.116167 -63.411394 -16.307522 0.000007 0.000002 2.639725 -0.000001 -0.000001 -0.000001 0.104096 -0.006765 9.502974 -83.725750 -83.443048 77.879825 -0.000017 -0.000019 4.568739 3.029924 -62.599435 -5.802674 -0.000010 -0.000018 3.654972 3.529906 -62.599401 -5.802626 0.000010 -0.000056 2.741239 -0.000001 0.000001 0.000002 0.086751 2.267447 8.921722 72.976289 -105.147948 -72.387144 -0.000015 0.000030 4.061087 -4.093180 -65.884667 7.853014 0.000002 0.000026 3.654999 -5.093308 -65.884647 7.853115 -0.000004 -0.000004 2.741246 0.000002 -0.000001 -0.000002 -0.173492 4.467228 7.976995 -96.785024 -66.995270 105.927812 -0.000038 -0.000011 3.350426 -12.829018 -64.026856 23.516522 -0.000031 -0.000057 2.842773 -14.829017 -64.026835 23.516514 0.000003 -0.000006 2.639692 0.000001 -0.000003 -0.000003 -0.000003 0.000002 0.000019 0.000000 -0.000000 0.000001 -0.000004 0.000001 0.000002 0.000000 -0.000000 0.000000 2.625393 0.000009 11.175219 -15.069938 88.898300 -0.174612 -0.000004 -0.000008 10.813637 42.311465 57.311851 41.281288 -0.000008 -0.000031 28.724735 -29.139718 3.291679 33.914457 0.644350 0.328838 25.716164 -32.493826 2.056382 -7.078981 2.867308 -2.944244 3.959610 -31.632549 22.186128 44.405338 -0.000015 -0.000008 3.350391 23.656878 -10.974048 -40.720116 -0.000011 -0.000053 3.756496 15.608968 -9.464762 -27.737127 -0.000001 0.000002 3.100008 0.000000 0.000001 -0.000000 0.086754 -2.345273 10.030891 27.808074 51.892929 21.813655 -0.000004 -0.000002 4.061111 1.734639 38.438088 6.404295 -0.000006 0.000003 3.248875 2.234653 38.438126 6.404309 -0.000015 0.000005 2.639738 -0.000001 -0.000001 -0.000001 -0.104095 -0.006779 9.502945 18.133437 50.511100 16.353983 0.000013 0.000014 4.568747 0.242022 36.687296 2.237705 -0.000006 0.000000 3.654997 0.742037 36.687313 2.237720 0.000011 -0.000004 2.741253 0.000000 0.000002 0.000000 -0.086742 2.267456 8.921700 5.492999 51.892755 10.524393 -0.000004 0.000005 4.061106 0.156191 36.291483 -2.574269 -0.000008 -0.000016 3.654980 -0.843800 36.291432 -2.574271 -0.000005 -0.000002 2.741246 -0.000001 -0.000000 -0.000003 0.173500 4.467237 7.976982 -8.325616 50.170868 2.939275 -0.000004 0.000026 3.350418 -0.218662 33.442805 -7.375899 0.000004 0.000026 2.842766 -2.218672 33.442792 -7.375910 0.000000 -0.000001 2.639714 -0.000000 0.000003 0.000000 0.000005 0.000004 0.000014 -0.000000 -0.000000 0.000002 -0.000020 -0.000025 0.000024 0.000004 0.000001 -0.000001 -11.289948 0.000030 0.000008 0.297399 11.729267 -12.472964 0.000009 0.000015 -38.200279 -0.181299 0.122350 33.500138 0.000013 -0.000035 -39.900833 -19.507012 -2.106241 26.549654 0.000002 -15.261651 -0.000003 0.930004 1.267841 -17.140450 -0.000004 -7.370665 -0.000002 -0.000000 0.000001 0.000002 -0.000004 0.000058 -0.000002 0.000001 0.000000 0.000001 -0.000011 0.000000 -0.000007 0.000000 0.000000 0.000000 11.315649 0.000018 0.000003 24.142770 -2.376804 -0.042052 -0.000004 0.000095 -38.200302 -0.320128 0.238281 35.596928 0.000004 -0.000103 -39.900856 20.823828 1.353195 0.399056 -0.000019 -15.261684 0.000006 -1.422266 0.796033 -15.175147 0.000001 -7.539970 0.000001 -0.000001 0.000000 -0.000000 -0.000003 -0.000061 0.000004 -0.000000 -0.000000 -0.000001 -0.000027 -0.000004 -0.000005 0.000001 0.000000 0.000000 
44.066803 -63.820068 84.420998 -32.322477 0.675720 -13.175517 0.000004 2.080065 8.814247 1.278988 3.633931 14.415230 -0.000003 0.000022 8.844137 0.607628 0.804048 8.235219 0.000003 0.000013 11.682275 5.303351 1.253491 11.242245 0.000009 0.000007 11.746717 1.629179 1.698663 7.537978 -0.000006 0.000012 17.658289 3.032761 9.778352 2.096208 0.000007 -0.000026 5.101495 -1.919795 1.459993 -4.374638 -0.000009 -0.000021 5.101543 1.080504 0.025132 -14.462868 -0.000008 0.000002 11.655091 0.000001 0.000000 -0.000001 -2.625404 -0.000015 11.175238 15.429469 -83.573136 1.359920 -0.000008 0.000008 10.434713 -55.199536 -43.115757 78.860101 0.000010 -0.000023 29.628494 12.831083 -0.100346 34.321383 -0.000020 -0.000069 22.857590 -6.217313 3.652405 -1.209325 -2.867323 -2.944290 3.959579 32.792028 -27.372123 37.391451 0.000000 0.000015 3.350441 -34.922836 10.052900 -58.756866 0.000015 -0.000008 3.756554 -23.319080 10.947679 -40.180767 -0.000000 -0.000002 3.147357 0.000001 -0.000001 -0.000001 -0.086759 -2.345296 10.030892 99.026699 -91.649630 -109.063511 0.000004 0.000015 4.061089 9.189435 -62.740533 -15.828941 0.000031 0.000023 3.248894 9.689459 -62.740519 -15.828946 0.000001 -0.000002 2.639714 -0.000000 -0.000000 0.000001 0.104094 -0.006746 9.502958 -75.773798 -83.282675 70.731957 -0.000021 -0.000001 4.568714 2.883851 -61.920501 -5.637622 -0.000024 0.000023 3.655003 3.383830 -61.920501 -5.637594 -0.000007 -0.000011 2.741253 0.000001 0.000001 0.000000 0.086760 2.267446 8.921719 77.339981 -104.851750 -76.251631 -0.000006 -0.000009 4.061094 -3.836388 -65.097918 7.570793 -0.000010 0.000007 3.654995 -4.836372 -65.097925 7.570786 -0.000015 0.000010 2.741243 -0.000002 0.000001 0.000003 -0.173491 4.467215 7.977001 -93.284033 -67.120248 102.389146 -0.000031 -0.000034 3.350395 -11.979132 -63.137886 22.567560 -0.000019 -0.000057 2.842773 -13.979177 -63.137873 22.567618 -0.000024 0.000042 2.639715 0.000003 -0.000002 0.000000 -0.000000 -0.000007 0.000006 0.000000 -0.000000 0.000001 0.000006 -0.000001 0.000012 -0.000001 -0.000000 -0.000002 2.625404 -0.000011 11.175251 -15.031728 88.834164 -0.196217 0.000015 -0.000009 10.813663 40.290763 59.075863 40.105232 -0.000011 0.000031 28.724747 -29.337872 2.959883 34.340675 0.644407 0.328853 25.716152 -35.599308 2.677733 -6.433886 2.867310 -2.944244 3.959549 -31.654522 22.374557 44.144817 -0.000015 0.000008 3.350430 24.076560 -11.002474 -41.389881 -0.000023 0.000015 3.756512 15.886998 -9.548768 -28.192606 0.000004 -0.000003 3.100026 0.000001 0.000001 0.000000 0.086761 -2.345289 10.030899 28.896833 53.111220 22.499709 0.000017 0.000010 4.061142 1.870601 39.364873 6.620784 0.000029 0.000051 3.248878 2.370585 39.364883 6.620771 -0.000007 -0.000063 2.639738 0.000001 0.000001 0.000001 -0.104088 -0.006768 9.502945 18.834814 51.682242 16.772477 -0.000003 0.000008 4.568727 0.285206 37.554224 2.309237 -0.000003 -0.000017 3.655020 0.785180 37.554217 2.309222 -0.000014 0.000005 2.741239 -0.000001 -0.000004 -0.000001 -0.086761 2.267458 8.921707 5.825197 52.978253 10.580897 -0.000002 0.000002 4.061127 0.111856 37.071091 -2.648501 0.000003 0.000020 3.654989 -0.888138 37.071135 -2.648488 0.000001 0.000003 2.741268 0.000000 0.000000 -0.000002 0.173477 4.467236 7.976991 -8.329105 51.095860 2.523722 0.000000 0.000009 3.350399 -0.325540 34.120090 -7.568116 0.000006 -0.000014 2.842793 -2.325544 34.120097 -7.568119 0.000003 0.000001 2.639714 -0.000000 0.000001 -0.000000 -0.000000 -0.000002 0.000040 0.000000 -0.000000 0.000001 0.000022 0.000014 -0.000003 -0.000000 -0.000001 0.000001 -11.289967 -0.000044 0.000023 1.072950 11.465553 -12.222410 -0.000006 0.000019 -38.200333 -0.191481 0.125611 33.263387 0.000018 -0.000049 -39.900841 -19.909819 -2.267752 26.585857 -0.000000 -15.261654 0.000002 0.924216 1.299471 -17.156983 0.000011 -7.370637 -0.000004 -0.000005 0.000001 0.000002 -0.000002 0.000082 -0.000004 -0.000003 -0.000001 0.000001 0.000001 0.000048 -0.000006 0.000002 0.000001 0.000000 11.315642 0.000020 -0.000006 24.053679 -2.519098 -0.024658 -0.000011 0.000085 -38.200256 -0.317796 0.236875 35.577363 -0.000014 -0.000014 -39.900845 21.145601 1.630128 0.572606 -0.000005 -15.261625 -0.000007 -1.432125 0.773682 -15.293647 0.000001 -7.539977 0.000000 -0.000000 0.000000 -0.000000 -0.000002 -0.000000 0.000005 0.000000 0.000000 -0.000002 -0.000017 -0.000002 0.000007 0.000000 0.000000 0.000002 
